<?xml version="1.0" encoding="UTF-8"?>
<svg id="Layer_2" data-name="Layer 2" xmlns="http://www.w3.org/2000/svg" viewBox="0 0 254.81 664.44">
  <defs>
    <style>
      .cls-1 {
        fill: #f9ab95;
      }

      .cls-2 {
        fill: #48a4ff;
      }

      .cls-3 {
        fill: #fec3b0;
      }

      .cls-4 {
        fill: #7d38ce;
        opacity: .35;
      }

      .cls-5 {
        fill: #c96532;
      }

      .cls-6 {
        fill: #ae5aff;
      }

      .cls-7 {
        fill: #eaafa0;
      }

      .cls-8 {
        fill: #fff;
      }

      .cls-9 {
        fill: #e3ddc3;
      }

      .cls-10 {
        fill: #fef7e5;
      }

      .cls-11 {
        fill: #c8ff00;
      }

      .cls-12 {
        fill: #d66f36;
      }

      .cls-13 {
        fill: #353535;
      }

      .cls-14 {
        fill: #4c4c4c;
      }
    </style>
  </defs>
  <g id="Layer_1-2" data-name="Layer 1">
    <g>
      <rect class="cls-6" x="68.42" y="323.92" width="24.64" height="266.27"/>
      <path class="cls-8" d="M93.85,532.02h-26.24c-2.34,0-4.26,1.76-4.26,3.92v19.85c0,2.07,1.77,3.76,3.99,3.89v30.5h26.79v-30.5c2.21-.13,3.99-1.82,3.99-3.89v-19.85c0-2.16-1.92-3.92-4.26-3.92Z"/>
      <g>
        <path class="cls-6" d="M94.47,580.41s9.37-12.75,27.5-12.9v23.66l-27.5-10.75Z"/>
        <path class="cls-9" d="M53.14,590.55c.71-2.54,2.8-4.45,5.39-4.94l51.99-9.8s8.91-1.69,11.37,18.89c0,0,51.08,35.65,82.68,43.57,4.68,1.17,8.83,3.92,11.84,7.69l.52.65c.33.41.5.91.5,1.43v9.95c0,1.66-.84,3.21-2.23,4.12-1.03.67-2.35,1.41-3.83,1.98-.59.23-1.22.34-1.86.34H54.2c-2.6,0-5.19-.46-7.59-1.48-1.32-.56-2.57-1.27-3.18-2.09h0c0-23.77,3.26-47.43,9.7-70.32h0Z"/>
        <path class="cls-11" d="M123.29,582.83l2.42,12.09c.1.48-.22.95-.7,1.04l-43.29,8.27c-7.61,1.45-15.35-2.57-18.16-9.78-.12-.31-.24-.63-.35-.96l59.04-11.35c.48-.09.94.22,1.04.7Z"/>
        <path class="cls-10" d="M217.43,648.04v9.95c0,1.66-.84,3.21-2.23,4.12-1.03.67-2.35,1.41-3.83,1.98-.59.23-1.22.34-1.86.34H54.2c-2.6,0-5.19-.46-7.59-1.48-1.32-.56-2.57-1.27-3.18-2.09h0c0-7.16.3-14.31.89-21.43l173.11,8.6Z"/>
        <path class="cls-6" d="M43.44,660.87s1.85,1.53,3.18,2.09c2.39,1.02,4.99,1.48,7.59,1.48h155.31c.63,0,1.26-.12,1.86-.34,1.49-.57,2.81-1.31,3.83-1.98"/>
      </g>
      <ellipse class="cls-12" cx="56.81" cy="54.01" rx="58.71" ry="51.91" transform="translate(-20.22 39.47) rotate(-32.87)"/>
      <rect class="cls-6" x="105.79" y="323.92" width="24.64" height="266.27"/>
      <path class="cls-8" d="M130.83,532.02h-25.42c-2.27,0-4.13,1.76-4.13,3.92v19.85c0,2.07,1.72,3.76,3.86,3.89v30.5h25.95v-30.5c2.15-.13,3.86-1.82,3.86-3.89v-19.85c0-2.16-1.86-3.92-4.13-3.92Z"/>
      <path class="cls-6" d="M158.52,228.72l-105.31-17.63c-24.13,25.25-29.06,53.99-29.9,60.56-.09.46-.2.91-.28,1.37-5.06,30.25,23.44,60.22,63.66,66.95,40.22,6.73,76.93-12.33,81.99-42.57,4.58-27.36-10.16-68.68-10.16-68.68Z"/>
      <ellipse class="cls-7" cx="206.45" cy="173.99" rx="25.42" ry="20.52" transform="translate(-25.28 312.53) rotate(-71)"/>
      <path class="cls-3" d="M150.6,47.02c-43.73-15.06-91.01,3.16-115.23,41.29-10.28-2.33-21.6,5.28-25.92,17.84-4.43,12.86.12,26.13,10.14,30.31-2.95,43.86,22.88,85.72,65.61,100.43,51.34,17.68,107.6-10.49,125.65-62.92,18.06-52.43-8.92-109.27-60.26-126.95Z"/>
      <ellipse class="cls-13" cx="164.05" cy="169.55" rx="16.18" ry="9.77" transform="translate(-49.67 269.45) rotate(-71)"/>
      <ellipse class="cls-13" cx="119.86" cy="154.33" rx="16.18" ry="9.77" transform="translate(-65.08 217.4) rotate(-71)"/>
      <circle class="cls-13" cx="132.7" cy="195.58" r="5.64"/>
      <path class="cls-3" d="M161,315.64c-13.76,19.17-42.97,29.58-74.31,24.34s-53.74-23.17-61.5-44.68l135.82,20.34Z"/>
      <path class="cls-5" d="M210.87,173.97c18.06-52.43-8.92-109.27-60.26-126.95-43.73-15.06-91.01,3.16-115.23,41.29,0,0,16.06,4.46,18.3,17.18,0,0,38.26-40.88,100.08-19.58,61.83,21.29,57.1,88.07,57.1,88.07Z"/>
      <path class="cls-12" d="M197.53,136.9c4.27-29.57-13.29-51.86-40.97-61.4s-56.64-3.08-71.69,23.13l112.66,38.27Z"/>
      <ellipse class="cls-1" cx="100.34" cy="181" rx="6.86" ry="11.3" transform="translate(-103.47 216.94) rotate(-71)"/>
      <ellipse class="cls-1" cx="167" cy="203.96" rx="6.86" ry="11.3" transform="translate(-80.22 295.44) rotate(-71)"/>
      <path class="cls-2" d="M87.22,141.57c-3.34,9.69-12.66,14.47-21.11,11.56-8.46-2.91-12.85-12.42-9.52-22.11,3.34-9.69,26.75-27.93,26.75-27.93,0,0,7.22,28.79,3.88,38.48Z"/>
      <path class="cls-8" d="M31.19,141.29l1.13-18.48s0-.01,0-.02c0-.01,0-.02,0-.04.27-4.45-3.12-8.29-7.57-8.56-4.45-.27-8.29,3.12-8.56,7.57-.27,4.45,3.12,8.29,7.57,8.56.41.03.81,0,1.21-.03l-.65,10.57c-.12,1.89,1.33,3.52,3.22,3.64s3.52-1.33,3.64-3.22Z"/>
      <circle class="cls-1" cx="120.26" cy="322.43" r="3.67"/>
      <path class="cls-8" d="M142.53,200.33l27.12,9.34s-2.38-10.35,8-10c0,0,7.82-9.58,15.35.44,0,0,16.31-3.75,14.74,12.55,0,0,8.03,9.51-3.35,17.22,0,0-6.62,9.67-15.52-.5,0,0-10.61,6.04-14.34-7.52,0,0-4.6,1.16-8.63-6.85l-23.38-14.67Z"/>
      <path class="cls-4" d="M55.04,259.19s-13.53,11.29-6.14,19.58c7.39,8.3,9.18,2.59,15.29,10.43,4.36,5.6,11.44,4.72,13.36,1.24,1.92-3.48,16.33-17.27.25-22.68s-22.75-8.58-22.75-8.58Z"/>
      <path class="cls-3" d="M68.06,359.71c10.24.41,18.8-7.73,18.9-17.98l.75-77.7c-.35-8.9-7.39-16.09-16.28-16.62h0c-9.7-.58-17.99,6.93-18.36,16.64l-2.44,76.93c-.32,9.97,7.46,18.33,17.43,18.73h0Z"/>
      <polygon class="cls-14" points="87.01 335.89 87.44 323.92 51.46 322.3 50.87 334.27 87.01 335.89"/>
      <rect class="cls-13" x="59.28" y="318.62" width="18.38" height="20.88" rx="3.49" ry="3.49" transform="translate(400.28 275.44) rotate(92.57)"/>
      <g>
        <path class="cls-6" d="M131.85,580.41s9.37-12.75,27.5-12.9v23.66l-27.5-10.75Z"/>
        <path class="cls-9" d="M90.52,590.55c.71-2.54,2.8-4.45,5.39-4.94l51.99-9.8s8.91-1.69,11.37,18.89c0,0,51.08,35.65,82.68,43.57,4.68,1.17,8.83,3.92,11.84,7.69l.52.65c.33.41.5.91.5,1.43v9.95c0,1.66-.84,3.21-2.23,4.12-1.03.67-2.35,1.41-3.83,1.98-.59.23-1.22.34-1.86.34H91.58c-2.6,0-5.19-.46-7.59-1.48-1.32-.56-2.57-1.27-3.18-2.09h0c0-23.77,3.26-47.43,9.7-70.32h0Z"/>
        <path class="cls-11" d="M160.67,582.83l2.42,12.09c.1.48-.22.95-.7,1.04l-43.29,8.27c-7.61,1.45-15.35-2.57-18.16-9.78-.12-.31-.24-.63-.35-.96l59.04-11.35c.48-.09.94.22,1.04.7Z"/>
        <path class="cls-10" d="M254.81,648.04v9.95c0,1.66-.84,3.21-2.23,4.12-1.03.67-2.35,1.41-3.83,1.98-.59.23-1.22.34-1.86.34H91.58c-2.6,0-5.19-.46-7.59-1.48-1.32-.56-2.57-1.27-3.18-2.09h0c0-7.16.3-14.31.89-21.43l173.11,8.6Z"/>
        <path class="cls-6" d="M80.82,660.87s1.85,1.53,3.18,2.09c2.39,1.02,4.99,1.48,7.59,1.48h155.31c.63,0,1.26-.12,1.86-.34,1.49-.57,2.81-1.31,3.83-1.98"/>
      </g>
    </g>
  </g>
</svg>