<?xml version="1.0" encoding="UTF-8"?>
<svg id="Layer_2" data-name="Layer 2" xmlns="http://www.w3.org/2000/svg" viewBox="0 0 294.23 312.33">
  <defs>
    <style>
      .cls-1, .cls-2, .cls-3 {
        letter-spacing: 0em;
      }

      .cls-1, .cls-4 {
        fill: #c8ff00;
      }

      .cls-2, .cls-5 {
        fill: #fff;
      }

      .cls-6 {
        fill: #ae5aff;
      }

      .cls-7 {
        font-family: Bungee-Regular, Bungee;
        font-size: 25px;
      }

      .cls-8 {
        letter-spacing: 0em;
      }

      .cls-9 {
        letter-spacing: 0em;
      }
    </style>
  </defs>
  <g id="Layer_1-2" data-name="Layer 1">
    <g>
      <path class="cls-6" d="M294.18,150.29c-1.02-8.25-5.61-45.45-9.62-76.72-4.53-35.4-32.51-44.77-32.51-44.77-14.59-4.09-49.67-18.56-49.67-18.56,0,0-3.63-3.11-6.93-3.6,0,0-2.93-6.14-5.71-6.63,0,0-9.09,24.75-42.64,24.75S104.48.01,104.48.01c-2.77.5-5.71,6.62-5.71,6.62-3.29.5-6.93,3.6-6.93,3.6,0,0-35.08,14.47-49.67,18.56,0,0-27.97,9.37-32.51,44.77C5.66,104.84,1.06,142.04.05,150.29c-.23,1.85.38,3.74,1.8,5.01.36.32.79.62,1.28.86,3.03,1.47,19.43,9.81,38.91,8.46,6.28-.43,11.62-4.65,13.33-10.44.02-.08.05-.17.07-.25,0,0,1.28-4.07,2.73-3.76,0,0,.73,50.46-8.36,134.68-.37,3.4,1.42,6.69,4.57,8.31,11.64,6,42.85,19.17,92.74,19.17s81.11-13.17,92.74-19.17c3.15-1.62,4.93-4.91,4.57-8.31-9.09-84.22-8.36-134.68-8.36-134.68,1.44-.31,2.73,3.76,2.73,3.76.02.09.05.17.07.25,1.71,5.79,7.05,10.01,13.33,10.44,19.48,1.34,35.88-7,38.91-8.46.49-.24.92-.53,1.28-.86,1.42-1.27,2.03-3.16,1.8-5.01Z"/>
      <text class="cls-7" transform="translate(93.96 93.24)"><tspan class="cls-4" x="0" y="0">“</tspan><tspan class="cls-5" x="17.1" y="0">He</tspan><tspan class="cls-2" x="52.42" y="0">a</tspan><tspan class="cls-5" x="70.42" y="0">v</tspan><tspan class="cls-2" x="88.67" y="0">y</tspan><tspan class="cls-5" x="106.05" y="0"> </tspan><tspan class="cls-5"><tspan x="-14.7" y="30">l</tspan><tspan class="cls-8" x="2.68" y="30">e</tspan><tspan x="18.9" y="30">gs</tspan><tspan class="cls-3" x="52.85" y="30">,</tspan><tspan x="62.2" y="30" xml:space="preserve"> bu</tspan><tspan class="cls-9" x="104.6" y="30">t</tspan><tspan x="120.75" y="30"> </tspan></tspan><tspan class="cls-5"><tspan x="-10.71" y="60">the</tspan><tspan class="cls-8" x="41.01" y="60"> </tspan><tspan x="46.51" y="60">view </tspan></tspan><tspan class="cls-5" x="-16.01" y="90">carried</tspan><tspan class="cls-1" x="105.21" y="90">”</tspan></text>
    </g>
  </g>
</svg>